<svg xmlns="http://www.w3.org/2000/svg" viewBox="0 0 64 40" width="64" height="40" role="img">
<title>SetsOfLove logo</title>
<rect x="2" y="18" width="60" height="4" rx="2" fill="#1B1F2A"/><rect x="6" y="4" width="5" height="32" rx="2.5" fill="#1B1F2A"/><rect x="13" y="9" width="4" height="22" rx="2" fill="#1B1F2A"/><rect x="53" y="4" width="5" height="32" rx="2.5" fill="#1B1F2A"/><rect x="47" y="9" width="4" height="22" rx="2" fill="#1B1F2A"/><path d="M32 34 C32 34 20 26 20 17 C20 12 24 9 28 9 C30 9 32 10.5 32 12.5 C32 10.5 34 9 36 9 C40 9 44 12 44 17 C44 26 32 34 32 34 Z" fill="#C8323A"/>
</svg>
